<?xml version="1.0" encoding="UTF-8" standalone="no"?>
<svg
   width="283.46pt"
   height="311.81pt"
   viewBox="0 0 283.46 311.81"
   version="1.2"
   id="svg13"
   sodipodi:docname="Footer-emblem.svg"
   inkscape:version="1.1.1 (eb90963e84, 2021-10-02)"
   xmlns:inkscape="http://www.inkscape.org/namespaces/inkscape"
   xmlns:sodipodi="http://sodipodi.sourceforge.net/DTD/sodipodi-0.dtd"
   xmlns="http://www.w3.org/2000/svg"
   xmlns:svg="http://www.w3.org/2000/svg">
  <defs
     id="defs17" />
  <sodipodi:namedview
     id="namedview15"
     pagecolor="#ffffff"
     bordercolor="#666666"
     borderopacity="1.0"
     inkscape:pageshadow="2"
     inkscape:pageopacity="0.0"
     inkscape:pagecheckerboard="0"
     inkscape:document-units="pt"
     showgrid="false"
     inkscape:zoom="1.9819762"
     inkscape:cx="189.2051"
     inkscape:cy="207.87333"
     inkscape:window-width="1920"
     inkscape:window-height="1018"
     inkscape:window-x="0"
     inkscape:window-y="34"
     inkscape:window-maximized="1"
     inkscape:current-layer="svg13" />
  <g
     id="surface5712">
    <path
       style=" stroke:none;fill-rule:nonzero;fill:rgb(32.640076%,10.78949%,8.764648%);fill-opacity:1;"
       d="M 224.4375 191.421875 C 203.722656 191.421875 194.402344 214.074219 194.402344 230.15625 C 194.402344 240.171875 197.316406 249.6875 202.605469 256.945312 L 202.613281 256.953125 C 208.449219 264.652344 216.203125 268.894531 224.4375 268.894531 C 245.15625 268.894531 254.476562 246.242188 254.476562 230.15625 C 254.476562 214.074219 245.15625 191.421875 224.4375 191.421875 Z M 243.347656 230.15625 C 243.347656 241.730469 236.773438 257.765625 224.4375 257.765625 C 212.101562 257.765625 205.53125 241.730469 205.53125 230.15625 C 205.53125 219.023438 211.539062 202.550781 224.4375 202.550781 C 237.339844 202.550781 243.347656 219.023438 243.347656 230.15625 "
       id="path2" />
    <path
       style=" stroke:none;fill-rule:nonzero;fill:rgb(32.640076%,10.78949%,8.764648%);fill-opacity:1;"
       d="M 169.15625 248.574219 C 168.890625 248.375 168.625 248.171875 168.277344 248.222656 C 167.691406 248.304688 167.40625 248.820312 167.488281 249.40625 C 167.605469 250.226562 167.28125 251.035156 166.792969 251.734375 L 166.554688 252.027344 C 162.863281 256.105469 158.320312 257.308594 152.152344 257.367188 C 146.539062 257.367188 140.738281 255.140625 137.40625 250.6875 C 134.074219 246.234375 131.746094 237.972656 131.746094 229.890625 C 131.746094 223.078125 134.019531 215.234375 137.242188 210.328125 C 140.457031 205.425781 146.238281 202.902344 151.929688 202.746094 C 157.625 202.925781 162.320312 204.648438 166.46875 208.125 C 166.929688 208.660156 167.328125 209.300781 167.257812 209.980469 C 167.195312 210.5625 167.742188 210.976562 168.214844 211.027344 C 168.449219 211.050781 168.808594 210.972656 168.953125 210.75 L 177.882812 201.277344 C 178.265625 200.964844 178.09375 200.355469 177.78125 199.964844 C 177.570312 199.707031 177.339844 199.683594 176.988281 199.648438 C 176.390625 199.703125 175.675781 199.746094 175.085938 199.683594 C 174.035156 199.574219 173.121094 199.4375 172.246094 198.757812 L 171.046875 198.042969 C 165.417969 193.695312 159.757812 191.378906 151.929688 191.378906 C 142.046875 191.378906 134.261719 194.859375 128.574219 201.820312 C 122.882812 208.78125 120.039062 218.210938 120.039062 230.113281 C 120.039062 241.941406 122.902344 251.410156 128.628906 258.523438 C 134.355469 265.632812 142.121094 269.1875 151.929688 269.1875 C 160.207031 269.1875 166.378906 266.519531 172.226562 261.582031 L 174.132812 260.25 C 174.785156 259.800781 175.570312 259.453125 176.390625 259.339844 C 176.738281 259.289062 177.207031 259.222656 177.570312 259.292969 C 177.6875 259.273438 177.808594 259.257812 177.808594 259.257812 C 178.148438 259.210938 178.476562 259.046875 178.558594 258.796875 C 178.742188 258.410156 178.679688 257.945312 178.28125 257.644531 L 169.15625 248.574219 "
       id="path4" />
    <path
       style=" stroke:none;fill-rule:nonzero;fill:rgb(32.640076%,10.78949%,8.764648%);fill-opacity:1;"
       d="M 78.820312 233.414062 L 78.839844 233.417969 L 79.101562 231.5 C 79.179688 230.804688 79.703125 229.992188 80.144531 229.421875 C 80.363281 229.136719 80.582031 228.851562 80.894531 228.636719 C 80.96875 228.542969 81.042969 228.449219 81.042969 228.449219 C 81.261719 228.160156 81.308594 227.898438 81.289062 227.730469 C 81.222656 227.226562 80.695312 227.125 80.429688 227.074219 L 68.621094 227.085938 C 68.359375 227.035156 68.046875 227.246094 67.898438 227.441406 C 67.605469 227.820312 67.671875 228.324219 68.054688 228.617188 C 68.96875 229.320312 69.316406 230.65625 69.242188 231.757812 C 69.085938 234.703125 68.519531 237.984375 67.542969 241.605469 L 51.40625 218.648438 C 48.527344 214.714844 47.085938 211.226562 47.085938 208.195312 C 47.085938 206.304688 47.675781 204.730469 48.851562 203.480469 C 50.023438 202.230469 51.480469 201.566406 53.226562 201.488281 C 56.632812 201.644531 59.210938 203.726562 60.953125 207.742188 L 70.15625 203.082031 C 66.367188 195.433594 60.796875 191.53125 53.453125 191.378906 C 48.601562 191.378906 44.660156 192.988281 41.632812 196.207031 C 38.601562 199.429688 37.089844 203.5 37.089844 208.421875 C 37.089844 213.195312 38.714844 218.007812 41.976562 222.855469 C 33.867188 228.914062 29.703125 237.285156 29.476562 247.96875 C 29.476562 254.484375 31.367188 259.804688 35.15625 263.933594 C 38.945312 268.0625 43.832031 270.125 49.816406 270.125 C 56.558594 270.125 62.542969 266.945312 67.769531 260.578125 L 73.109375 268.535156 L 87.085938 268.535156 L 74.136719 250.691406 C 76.582031 246.078125 78.113281 240.285156 78.820312 233.414062 Z M 50.269531 258.875 C 47.542969 258.875 45.195312 257.777344 43.226562 255.582031 C 41.253906 253.386719 40.269531 250.769531 40.269531 247.742188 C 40.269531 242.664062 42.882812 237.625 48.109375 232.625 L 61.519531 251.492188 C 58.109375 256.414062 54.359375 258.875 50.269531 258.875 "
       id="path6" />
    <path
       style=" stroke:none;fill-rule:nonzero;fill:rgb(32.640076%,10.78949%,8.764648%);fill-opacity:1;"
       d="M 251.179688 107.519531 L 231.589844 107.519531 C 230.589844 107.519531 229.523438 108.222656 229.523438 109.527344 L 229.523438 109.828125 C 229.523438 110.277344 229.617188 110.851562 230.308594 111.335938 C 231.738281 112.445312 232.527344 114.019531 232.527344 115.761719 L 232.527344 147.105469 C 232.527344 147.96875 231.9375 149.171875 231.296875 149.28125 C 227.882812 149.925781 220.535156 150.214844 214.765625 150.214844 C 207.246094 150.214844 195.417969 145.195312 189.421875 137.078125 C 182.902344 128.269531 179.3125 116.5 179.3125 103.9375 C 179.3125 91.457031 183.675781 80.546875 190.34375 71.539062 C 196.125 63.722656 206.90625 59.039062 214.765625 59.039062 C 220.550781 59.039062 225.519531 60.121094 231.402344 63.75 L 233.832031 65.140625 C 234.585938 65.640625 235.484375 66.507812 235.484375 67.773438 C 235.484375 68.832031 236.488281 69.835938 237.546875 69.835938 C 238.125 69.835938 238.886719 69.558594 239.125 69.050781 L 250.890625 53.585938 C 251.214844 53.265625 251.417969 52.738281 251.417969 52.214844 C 251.417969 51.703125 251.234375 51.234375 250.894531 50.898438 C 250.226562 50.230469 249.488281 49.984375 248.777344 50.222656 C 248.015625 50.53125 247.050781 50.53125 246.199219 50.53125 C 244.828125 50.53125 238.808594 48.03125 237.585938 47.429688 C 231.046875 44.21875 220.847656 42.300781 214.765625 42.300781 C 200.023438 42.300781 186.242188 49.554688 175.964844 62.71875 C 166.816406 74.425781 161.359375 89.835938 161.359375 103.9375 C 161.359375 133.734375 181.324219 165.5625 214.734375 167.238281 C 216.042969 167.304688 217.414062 167.339844 218.832031 167.339844 C 229.023438 167.339844 241.519531 165.523438 249.910156 160.328125 L 250.21875 160.136719 L 250.222656 159.777344 C 250.222656 159.777344 250.246094 153.351562 250.246094 151.761719 L 250.246094 115.40625 C 250.246094 114.0625 250.609375 112.273438 252.351562 111.402344 C 252.964844 111.097656 253.242188 110.335938 253.242188 109.757812 C 253.242188 108.566406 252.277344 107.519531 251.179688 107.519531 "
       id="path8" />
    <path
       style=" stroke:none;fill-rule:nonzero;fill:rgb(32.640076%,10.78949%,8.764648%);fill-opacity:1;"
       d="M 132.566406 46.378906 C 133.0625 45.878906 133.285156 45.355469 133.285156 44.679688 C 133.285156 43.617188 132.28125 42.617188 131.21875 42.617188 L 113.519531 42.617188 C 112.453125 42.617188 111.523438 43.054688 111.085938 43.722656 L 82.414062 76.191406 L 53.796875 43.691406 C 53.113281 43.007812 52.238281 42.617188 51.394531 42.617188 L 33.691406 42.617188 C 32.496094 42.617188 31.449219 43.582031 31.449219 44.679688 C 31.449219 45.449219 31.757812 46 32.421875 46.445312 C 34.246094 47.765625 35.332031 49.878906 35.332031 52.09375 L 35.332031 157.988281 C 35.332031 160.203125 34.246094 162.316406 32.445312 163.621094 C 31.757812 164.082031 31.449219 164.632812 31.449219 165.398438 C 31.449219 166.5 32.496094 167.464844 33.691406 167.464844 L 55.15625 167.464844 C 56.347656 167.464844 57.394531 166.5 57.394531 165.398438 C 57.394531 164.605469 56.902344 164.109375 56.503906 163.703125 L 56.355469 163.558594 L 56.15625 163.519531 C 54.601562 163.238281 53.515625 161.832031 53.515625 160.105469 L 53.515625 69.972656 L 81.464844 101.972656 C 81.832031 102.339844 82.238281 102.339844 82.457031 102.339844 C 82.675781 102.339844 83.082031 102.339844 83.476562 101.9375 L 111.398438 69.96875 L 111.398438 157.988281 C 111.398438 160.230469 109.878906 162.058594 108.238281 163.699219 C 107.738281 164.199219 107.515625 164.722656 107.515625 165.398438 C 107.515625 166.5 108.5625 167.464844 109.757812 167.464844 L 131.21875 167.464844 C 132.28125 167.464844 133.285156 166.460938 133.285156 165.398438 C 133.285156 164.726562 133.0625 164.203125 132.566406 163.699219 C 130.472656 161.609375 129.578125 159.898438 129.578125 157.988281 L 129.578125 52.09375 C 129.578125 50.179688 130.472656 48.472656 132.566406 46.378906 "
       id="path10" />
  </g>
</svg>
