<?xml version="1.0" encoding="UTF-8" standalone="no"?>
<svg
   width="595.28pt"
   height="226.77pt"
   viewBox="0 0 595.28 226.77"
   version="1.2"
   id="svg31"
   sodipodi:docname="Logo.svg"
   inkscape:version="1.1.1 (eb90963e84, 2021-10-02)"
   xmlns:inkscape="http://www.inkscape.org/namespaces/inkscape"
   xmlns:sodipodi="http://sodipodi.sourceforge.net/DTD/sodipodi-0.dtd"
   xmlns="http://www.w3.org/2000/svg"
   xmlns:svg="http://www.w3.org/2000/svg">
  <defs
     id="defs35" />
  <sodipodi:namedview
     id="namedview33"
     pagecolor="#ffffff"
     bordercolor="#666666"
     borderopacity="1.0"
     inkscape:pageshadow="2"
     inkscape:pageopacity="0.0"
     inkscape:pagecheckerboard="0"
     inkscape:document-units="pt"
     showgrid="false"
     inkscape:zoom="1.6933207"
     inkscape:cx="396.85335"
     inkscape:cy="151.18223"
     inkscape:window-width="1920"
     inkscape:window-height="1018"
     inkscape:window-x="0"
     inkscape:window-y="34"
     inkscape:window-maximized="1"
     inkscape:current-layer="svg31" />
  <g
     id="surface3049">
    <path
       style=" stroke:none;fill-rule:nonzero;fill:rgb(100%,100%,100%);fill-opacity:1;"
       d="M 154.222656 125.195312 C 132.183594 125.195312 121.914062 150.171875 121.914062 167.050781 C 121.914062 187.125 134.265625 208.785156 154.222656 208.785156 C 166.5625 208.785156 174.222656 201.199219 178.476562 194.835938 C 183.597656 187.179688 186.652344 176.796875 186.652344 167.050781 C 186.652344 156.183594 183.480469 145.925781 177.726562 138.171875 C 171.597656 129.804688 163.25 125.195312 154.222656 125.195312 Z M 174.96875 167.050781 C 174.96875 175.335938 172.601562 183.097656 168.304688 188.902344 C 164.398438 194.191406 159.398438 197.105469 154.222656 197.105469 C 149.128906 197.105469 144.167969 194.191406 140.257812 188.902344 C 135.960938 183.09375 133.59375 175.332031 133.59375 167.050781 C 133.59375 158.691406 135.960938 150.890625 140.257812 145.082031 C 144.113281 139.867188 149.074219 136.996094 154.222656 136.996094 C 168.375 136.996094 174.96875 154.929688 174.96875 167.050781 "
       id="path2" />
    <path
       style=" stroke:none;fill-rule:nonzero;fill:rgb(100%,100%,100%);fill-opacity:1;"
       d="M 543.195312 147.742188 C 526.941406 147.742188 519.632812 165.511719 519.632812 178.128906 C 519.632812 185.988281 521.917969 193.453125 526.066406 199.148438 L 526.074219 199.15625 C 530.652344 205.195312 536.734375 208.523438 543.195312 208.523438 C 559.449219 208.523438 566.761719 190.75 566.761719 178.128906 C 566.761719 165.511719 559.449219 147.742188 543.195312 147.742188 Z M 558.03125 178.128906 C 558.03125 187.210938 552.875 199.792969 543.195312 199.792969 C 533.515625 199.792969 528.363281 187.210938 528.363281 178.128906 C 528.363281 169.394531 533.078125 156.472656 543.195312 156.472656 C 553.316406 156.472656 558.03125 169.394531 558.03125 178.128906 "
       id="path4" />
    <path
       style=" stroke:none;fill-rule:nonzero;fill:rgb(100%,100%,100%);fill-opacity:1;"
       d="M 322.960938 125.546875 L 300.273438 125.546875 C 299.484375 125.546875 298.792969 126.183594 298.792969 126.910156 C 298.792969 127.351562 298.941406 127.695312 299.269531 128.027344 C 300.351562 129.109375 301.351562 130.3125 301.351562 131.796875 L 301.351562 201.609375 C 301.351562 203.089844 300.351562 204.296875 299.269531 205.378906 C 298.941406 205.707031 298.792969 206.050781 298.792969 206.496094 C 298.792969 207.21875 299.484375 207.855469 300.273438 207.855469 L 322.960938 207.855469 C 331.425781 207.855469 339.238281 203.328125 344.960938 195.105469 C 350.109375 187.609375 352.945312 177.523438 352.945312 166.703125 C 352.945312 157.183594 350.269531 147.058594 345.785156 139.617188 C 341.921875 133.199219 334.820312 125.546875 322.960938 125.546875 Z M 341.148438 166.703125 C 341.148438 183.230469 333.160156 196.175781 322.960938 196.175781 L 313.769531 196.175781 C 313.4375 196.175781 313.035156 195.796875 313.035156 195.324219 L 313.035156 138.078125 C 313.035156 137.605469 313.4375 137.226562 313.769531 137.226562 L 322.960938 137.226562 C 333.160156 137.226562 341.148438 150.175781 341.148438 166.703125 "
       id="path6" />
    <path
       style=" stroke:none;fill-rule:nonzero;fill:rgb(100%,100%,100%);fill-opacity:1;"
       d="M 90.046875 169.414062 L 77.132812 169.414062 C 76.472656 169.414062 75.773438 169.878906 75.773438 170.738281 L 75.773438 170.933594 C 75.773438 171.230469 75.832031 171.613281 76.289062 171.929688 C 77.230469 172.664062 77.753906 173.699219 77.753906 174.847656 L 77.753906 195.511719 C 77.753906 196.082031 77.363281 196.875 76.9375 196.945312 C 74.691406 197.371094 69.84375 197.5625 66.042969 197.5625 C 61.085938 197.5625 53.285156 194.253906 49.332031 188.902344 C 45.035156 183.09375 42.667969 175.335938 42.667969 167.050781 C 42.667969 158.824219 45.546875 151.632812 49.941406 145.691406 C 53.753906 140.539062 60.859375 137.453125 66.042969 137.453125 C 69.855469 137.453125 73.132812 138.164062 77.007812 140.558594 L 78.613281 141.472656 C 79.109375 141.804688 79.703125 142.375 79.703125 143.210938 C 79.703125 143.90625 80.363281 144.570312 81.0625 144.570312 C 81.441406 144.570312 81.945312 144.386719 82.101562 144.050781 L 89.859375 133.855469 C 90.074219 133.644531 90.207031 133.296875 90.207031 132.953125 C 90.207031 132.617188 90.085938 132.308594 89.859375 132.082031 C 89.421875 131.644531 88.933594 131.484375 88.464844 131.640625 C 87.960938 131.84375 87.324219 131.84375 86.765625 131.84375 C 85.863281 131.84375 81.894531 130.191406 81.085938 129.796875 C 76.777344 127.679688 70.050781 126.414062 66.042969 126.414062 C 56.324219 126.414062 47.238281 131.195312 40.460938 139.878906 C 34.429688 147.597656 30.832031 157.753906 30.832031 167.050781 C 30.832031 186.695312 43.996094 207.679688 66.019531 208.785156 C 66.886719 208.828125 67.789062 208.851562 68.722656 208.851562 C 75.441406 208.851562 83.679688 207.652344 89.214844 204.230469 L 89.414062 204.101562 L 89.417969 203.867188 C 89.417969 203.867188 89.433594 199.628906 89.433594 198.582031 L 89.433594 174.613281 C 89.433594 173.726562 89.675781 172.546875 90.824219 171.976562 C 91.226562 171.773438 91.410156 171.269531 91.410156 170.890625 C 91.410156 170.105469 90.773438 169.414062 90.046875 169.414062 "
       id="path8" />
    <path
       style=" stroke:none;fill-rule:nonzero;fill:rgb(100%,100%,100%);fill-opacity:1;"
       d="M 95.667969 20.289062 C 95.996094 19.960938 96.144531 19.613281 96.144531 19.171875 C 96.144531 18.46875 95.480469 17.808594 94.78125 17.808594 L 83.109375 17.808594 C 82.410156 17.808594 81.796875 18.097656 81.507812 18.539062 L 62.605469 39.945312 L 43.738281 18.519531 C 43.285156 18.066406 42.710938 17.808594 42.152344 17.808594 L 30.480469 17.808594 C 29.695312 17.808594 29.003906 18.445312 29.003906 19.171875 C 29.003906 19.679688 29.207031 20.039062 29.648438 20.335938 C 30.847656 21.203125 31.5625 22.597656 31.5625 24.058594 L 31.5625 93.871094 C 31.5625 95.332031 30.847656 96.726562 29.660156 97.585938 C 29.207031 97.890625 29.003906 98.253906 29.003906 98.757812 C 29.003906 99.484375 29.695312 100.121094 30.480469 100.121094 L 44.632812 100.121094 C 45.417969 100.121094 46.109375 99.484375 46.109375 98.757812 C 46.109375 98.234375 45.785156 97.90625 45.523438 97.640625 L 45.425781 97.542969 L 45.292969 97.519531 C 44.269531 97.332031 43.550781 96.40625 43.550781 95.269531 L 43.550781 35.84375 L 61.976562 56.941406 C 62.21875 57.183594 62.488281 57.183594 62.632812 57.183594 C 62.777344 57.183594 63.042969 57.183594 63.304688 56.921875 L 81.714844 35.839844 L 81.714844 93.871094 C 81.714844 95.351562 80.714844 96.554688 79.632812 97.640625 C 79.300781 97.96875 79.152344 98.3125 79.152344 98.757812 C 79.152344 99.484375 79.84375 100.121094 80.632812 100.121094 L 94.78125 100.121094 C 95.480469 100.121094 96.144531 99.457031 96.144531 98.757812 C 96.144531 98.316406 95.996094 97.972656 95.667969 97.640625 C 94.289062 96.257812 93.699219 95.132812 93.699219 93.871094 L 93.699219 24.058594 C 93.699219 22.796875 94.289062 21.671875 95.667969 20.289062 "
       id="path10" />
    <path
       style=" stroke:none;fill-rule:nonzero;fill:rgb(100%,100%,100%);fill-opacity:1;"
       d="M 313.289062 100.121094 C 314.074219 100.121094 314.765625 99.484375 314.765625 98.757812 C 314.765625 98.234375 314.4375 97.90625 314.171875 97.640625 C 312.792969 96.261719 312.203125 95.132812 312.203125 93.871094 L 312.203125 24.058594 C 312.203125 22.796875 312.792969 21.667969 314.175781 20.289062 C 314.4375 20.023438 314.765625 19.699219 314.765625 19.171875 C 314.765625 18.445312 314.074219 17.808594 313.289062 17.808594 L 298.832031 17.808594 C 298.042969 17.808594 297.351562 18.445312 297.351562 19.171875 C 297.351562 19.613281 297.5 19.960938 297.828125 20.289062 L 297.894531 20.34375 C 299.15625 21.1875 299.910156 22.574219 299.910156 24.058594 L 299.910156 93.871094 C 299.910156 95.351562 298.910156 96.554688 297.828125 97.640625 C 297.5 97.972656 297.351562 98.316406 297.351562 98.757812 C 297.351562 99.484375 298.042969 100.121094 298.832031 100.121094 L 313.289062 100.121094 "
       id="path12" />
    <path
       style=" stroke:none;fill-rule:nonzero;fill:rgb(100%,100%,100%);fill-opacity:1;"
       d="M 397.433594 83.925781 C 397.035156 83.925781 396.539062 84.25 396.351562 84.632812 C 394.945312 87.4375 391.882812 89.046875 387.945312 89.046875 L 370.492188 89.046875 C 370.160156 89.046875 369.757812 88.667969 369.757812 88.199219 L 369.757812 24.058594 C 369.757812 22.796875 370.347656 21.667969 371.730469 20.289062 C 371.992188 20.023438 372.320312 19.699219 372.320312 19.171875 C 372.320312 18.445312 371.628906 17.808594 370.839844 17.808594 L 356.996094 17.808594 C 356.210938 17.808594 355.519531 18.445312 355.519531 19.171875 C 355.519531 19.617188 355.664062 19.960938 355.992188 20.289062 C 357.074219 21.371094 358.074219 22.578125 358.074219 24.058594 L 358.074219 93.871094 C 358.074219 95.332031 357.359375 96.722656 356.171875 97.585938 C 355.71875 97.890625 355.519531 98.253906 355.519531 98.757812 C 355.519531 99.484375 356.210938 100.121094 356.996094 100.121094 L 397.246094 100.121094 C 398.011719 100.121094 398.839844 99.511719 398.839844 98.527344 L 398.910156 85.40625 C 398.910156 84.589844 398.246094 83.925781 397.433594 83.925781 "
       id="path14" />
    <path
       style=" stroke:none;fill-rule:nonzero;fill:rgb(100%,100%,100%);fill-opacity:1;"
       d="M 473.6875 87.367188 C 478.835938 79.871094 481.675781 69.785156 481.675781 58.964844 C 481.675781 49.445312 478.996094 39.320312 474.515625 31.878906 C 470.644531 25.460938 463.546875 17.808594 451.6875 17.808594 L 429 17.808594 C 428.214844 17.808594 427.523438 18.445312 427.523438 19.171875 C 427.523438 19.613281 427.667969 19.957031 427.996094 20.289062 C 429.078125 21.371094 430.082031 22.578125 430.082031 24.058594 L 430.082031 93.871094 C 430.082031 95.351562 429.078125 96.554688 427.992188 97.640625 C 427.667969 97.972656 427.523438 98.316406 427.523438 98.757812 C 427.523438 99.484375 428.214844 100.121094 429 100.121094 L 451.6875 100.121094 C 460.152344 100.121094 467.964844 95.589844 473.6875 87.367188 Z M 441.765625 87.589844 L 441.765625 30.339844 C 441.765625 29.871094 442.164062 29.492188 442.496094 29.492188 L 451.6875 29.492188 C 461.886719 29.492188 469.875 42.4375 469.875 58.964844 C 469.875 75.492188 461.886719 88.4375 451.6875 88.4375 L 442.496094 88.4375 C 442.164062 88.4375 441.765625 88.058594 441.765625 87.589844 "
       id="path16" />
    <path
       style=" stroke:none;fill-rule:nonzero;fill:rgb(100%,100%,100%);fill-opacity:1;"
       d="M 211.992188 33.429688 C 212.519531 33.429688 212.847656 33.101562 213.113281 32.835938 C 215.425781 30.519531 217.320312 28.882812 220.613281 28.882812 L 229.222656 28.882812 C 229.683594 28.882812 230.074219 29.273438 230.074219 29.730469 L 230.074219 93.871094 C 230.074219 95.332031 229.355469 96.722656 228.171875 97.585938 C 227.714844 97.890625 227.511719 98.253906 227.511719 98.757812 C 227.511719 99.484375 228.203125 100.121094 228.988281 100.121094 L 243.140625 100.121094 C 243.929688 100.121094 244.621094 99.484375 244.621094 98.757812 C 244.621094 98.234375 244.296875 97.910156 244.027344 97.640625 C 242.648438 96.261719 242.058594 95.132812 242.058594 93.871094 L 242.058594 29.730469 C 242.058594 29.308594 242.308594 28.882812 242.792969 28.882812 L 250.355469 28.882812 C 254.003906 28.882812 256.503906 30.175781 257.773438 32.722656 C 257.964844 33.105469 258.460938 33.429688 258.859375 33.429688 C 259.671875 33.429688 260.335938 32.765625 260.335938 31.949219 L 260.320312 19.402344 C 260.320312 18.417969 259.492188 17.808594 258.726562 17.808594 L 212.242188 17.808594 C 211.476562 17.808594 210.648438 18.417969 210.648438 19.402344 L 210.632812 31.949219 C 210.632812 32.738281 211.269531 33.429688 211.992188 33.429688 "
       id="path18" />
    <path
       style=" stroke:none;fill-rule:nonzero;fill:rgb(100%,100%,100%);fill-opacity:1;"
       d="M 129.695312 100.121094 L 143.164062 100.121094 C 143.953125 100.121094 144.644531 99.484375 144.644531 98.757812 C 144.644531 98.234375 144.316406 97.90625 144.054688 97.640625 L 143.929688 97.511719 L 143.78125 97.511719 C 142.886719 96.746094 142.488281 95.558594 142.765625 94.445312 L 145.4375 84.125 C 145.59375 83.648438 146 83.140625 146.65625 83.140625 L 167.558594 83.140625 C 168.214844 83.140625 168.617188 83.648438 168.769531 84.097656 L 171.445312 94.441406 C 171.707031 95.5 171.3125 96.484375 170.152344 97.644531 C 169.894531 97.90625 169.570312 98.234375 169.570312 98.757812 C 169.570312 99.484375 170.261719 100.121094 171.046875 100.121094 L 184.515625 100.121094 C 185.304688 100.121094 185.992188 99.484375 185.992188 98.757812 C 185.992188 98.25 185.789062 97.890625 185.335938 97.585938 C 184.121094 96.777344 183.195312 95.417969 182.722656 93.761719 L 162.59375 18.128906 L 162.179688 18.238281 L 152.027344 18.238281 L 151.613281 18.128906 L 131.492188 93.753906 C 131.058594 95.273438 129.964844 96.367188 128.691406 97.640625 C 128.363281 97.972656 128.21875 98.316406 128.21875 98.757812 C 128.21875 99.484375 128.910156 100.121094 129.695312 100.121094 Z M 148.800781 71.9375 C 148.800781 71.9375 148.800781 71.925781 148.808594 71.898438 L 157.050781 39.539062 L 165.347656 71.914062 L 148.800781 71.9375 "
       id="path20" />
    <path
       style=" stroke:none;fill-rule:nonzero;fill:rgb(100%,100%,100%);fill-opacity:1;"
       d="M 262.800781 201.148438 L 242.671875 125.515625 L 242.253906 125.628906 L 232.109375 125.628906 L 231.691406 125.515625 L 211.570312 201.140625 C 211.140625 202.660156 210.042969 203.757812 208.773438 205.027344 C 208.445312 205.355469 208.296875 205.699219 208.296875 206.144531 C 208.296875 206.871094 208.988281 207.507812 209.773438 207.507812 L 223.242188 207.507812 C 224.03125 207.507812 224.722656 206.871094 224.722656 206.144531 C 224.722656 205.617188 224.394531 205.292969 224.128906 205.027344 L 224.003906 204.902344 L 223.863281 204.902344 C 222.964844 204.140625 222.566406 202.949219 222.847656 201.832031 L 225.515625 191.515625 C 225.671875 191.035156 226.074219 190.527344 226.734375 190.527344 L 247.636719 190.527344 C 248.292969 190.527344 248.695312 191.035156 248.847656 191.484375 L 251.523438 201.828125 C 251.785156 202.886719 251.390625 203.875 250.242188 205.027344 C 249.992188 205.273438 249.648438 205.613281 249.648438 206.144531 C 249.648438 206.871094 250.339844 207.507812 251.125 207.507812 L 264.59375 207.507812 C 265.382812 207.507812 266.074219 206.871094 266.074219 206.144531 C 266.074219 205.636719 265.871094 205.277344 265.414062 204.972656 C 264.203125 204.167969 263.273438 202.804688 262.800781 201.148438 Z M 228.878906 179.324219 C 228.878906 179.324219 228.878906 179.316406 228.886719 179.289062 L 237.125 146.929688 L 245.425781 179.300781 L 228.878906 179.324219 "
       id="path22" />
    <path
       style=" stroke:none;fill-rule:nonzero;fill:rgb(100%,100%,100%);fill-opacity:1;"
       d="M 507.945312 100.121094 L 521.417969 100.121094 C 522.203125 100.121094 522.894531 99.484375 522.894531 98.757812 C 522.894531 98.238281 522.574219 97.914062 522.304688 97.640625 L 522.179688 97.511719 L 522.035156 97.511719 C 521.136719 96.75 520.742188 95.558594 521.019531 94.445312 L 523.683594 84.125 C 523.84375 83.648438 524.25 83.140625 524.90625 83.140625 L 545.804688 83.140625 C 546.464844 83.140625 546.867188 83.648438 547.023438 84.097656 L 549.695312 94.441406 C 549.960938 95.503906 549.5625 96.488281 548.40625 97.644531 C 548.144531 97.90625 547.820312 98.234375 547.820312 98.757812 C 547.820312 99.484375 548.511719 100.121094 549.296875 100.121094 L 562.765625 100.121094 C 563.550781 100.121094 564.242188 99.484375 564.242188 98.757812 C 564.242188 98.253906 564.042969 97.890625 563.589844 97.585938 C 562.375 96.777344 561.445312 95.417969 560.972656 93.761719 L 540.84375 18.128906 L 540.429688 18.238281 L 530.28125 18.238281 L 529.863281 18.128906 L 509.742188 93.753906 C 509.308594 95.273438 508.214844 96.367188 506.945312 97.640625 C 506.613281 97.972656 506.46875 98.316406 506.46875 98.757812 C 506.46875 99.484375 507.160156 100.121094 507.945312 100.121094 Z M 527.050781 71.9375 C 527.050781 71.9375 527.050781 71.925781 527.058594 71.902344 L 535.300781 39.546875 L 543.597656 71.914062 L 527.050781 71.9375 "
       id="path24" />
    <path
       style=" stroke:none;fill-rule:nonzero;fill:rgb(100%,100%,100%);fill-opacity:1;"
       d="M 499.828125 192.582031 C 499.617188 192.421875 499.410156 192.265625 499.132812 192.304688 C 498.675781 192.367188 498.453125 192.773438 498.515625 193.230469 C 498.605469 193.878906 498.355469 194.511719 497.972656 195.058594 L 497.785156 195.289062 C 494.890625 198.488281 491.324219 199.433594 486.484375 199.480469 C 482.078125 199.480469 477.53125 197.734375 474.917969 194.238281 C 472.300781 190.742188 470.476562 184.265625 470.476562 177.921875 C 470.476562 172.578125 472.257812 166.421875 474.785156 162.574219 C 477.308594 158.726562 481.84375 156.75 486.308594 156.628906 C 490.777344 156.765625 494.460938 158.117188 497.71875 160.847656 C 498.078125 161.265625 498.390625 161.765625 498.335938 162.300781 C 498.285156 162.757812 498.71875 163.082031 499.085938 163.121094 C 499.269531 163.140625 499.554688 163.078125 499.664062 162.90625 L 506.671875 155.472656 C 506.972656 155.226562 506.839844 154.75 506.59375 154.445312 C 506.425781 154.242188 506.242188 154.222656 505.96875 154.195312 C 505.5 154.238281 504.9375 154.273438 504.476562 154.222656 C 503.652344 154.136719 502.9375 154.03125 502.25 153.496094 L 501.308594 152.9375 C 496.894531 149.523438 492.453125 147.707031 486.308594 147.707031 C 478.554688 147.707031 472.449219 150.4375 467.984375 155.898438 C 463.519531 161.359375 461.289062 168.757812 461.289062 178.097656 C 461.289062 187.378906 463.535156 194.804688 468.027344 200.386719 C 472.519531 205.964844 478.613281 208.753906 486.308594 208.753906 C 492.804688 208.753906 497.644531 206.660156 502.234375 202.789062 L 503.730469 201.738281 C 504.242188 201.390625 504.855469 201.117188 505.5 201.027344 C 505.773438 200.988281 506.140625 200.933594 506.425781 200.988281 C 506.519531 200.972656 506.613281 200.964844 506.613281 200.964844 C 506.882812 200.925781 507.140625 200.796875 507.203125 200.601562 C 507.347656 200.300781 507.296875 199.933594 506.984375 199.695312 L 499.828125 192.582031 "
       id="path26" />
    <path
       style=" stroke:none;fill-rule:nonzero;fill:rgb(100%,100%,100%);fill-opacity:1;"
       d="M 428.949219 180.6875 L 428.96875 180.691406 L 429.171875 179.183594 C 429.234375 178.640625 429.644531 178.003906 429.988281 177.554688 C 430.160156 177.332031 430.335938 177.105469 430.578125 176.9375 C 430.636719 176.863281 430.695312 176.792969 430.695312 176.792969 C 430.867188 176.566406 430.90625 176.359375 430.890625 176.226562 C 430.835938 175.832031 430.425781 175.753906 430.214844 175.710938 L 420.949219 175.722656 C 420.742188 175.683594 420.5 175.847656 420.382812 176 C 420.15625 176.296875 420.207031 176.695312 420.507812 176.921875 C 421.222656 177.472656 421.492188 178.523438 421.4375 179.386719 C 421.316406 181.695312 420.871094 184.269531 420.101562 187.109375 L 407.445312 169.101562 C 405.183594 166.015625 404.054688 163.277344 404.054688 160.898438 C 404.054688 159.417969 404.515625 158.183594 405.4375 157.199219 C 406.359375 156.222656 407.503906 155.699219 408.871094 155.640625 C 411.542969 155.761719 413.566406 157.394531 414.933594 160.546875 L 422.15625 156.890625 C 419.179688 150.886719 414.8125 147.828125 409.050781 147.707031 C 405.246094 147.707031 402.152344 148.96875 399.777344 151.496094 C 397.398438 154.023438 396.210938 157.21875 396.210938 161.078125 C 396.210938 164.824219 397.488281 168.601562 400.046875 172.402344 C 393.683594 177.15625 390.417969 183.722656 390.238281 192.105469 C 390.238281 197.21875 391.722656 201.390625 394.695312 204.628906 C 397.667969 207.871094 401.5 209.488281 406.195312 209.488281 C 411.484375 209.488281 416.179688 206.992188 420.28125 202 L 424.472656 208.242188 L 435.4375 208.242188 L 425.277344 194.242188 C 427.195312 190.625 428.398438 186.078125 428.949219 180.6875 Z M 406.554688 200.664062 C 404.414062 200.664062 402.570312 199.800781 401.027344 198.078125 C 399.480469 196.355469 398.707031 194.304688 398.707031 191.925781 C 398.707031 187.945312 400.757812 183.992188 404.859375 180.066406 L 415.378906 194.867188 C 412.703125 198.730469 409.761719 200.664062 406.554688 200.664062 "
       id="path28" />
  </g>
</svg>
