<?xml version="1.0" encoding="UTF-8" standalone="no"?>
<!-- Created with Inkscape (http://www.inkscape.org/) -->

<svg
   version="1.1"
   id="svg2"
   xml:space="preserve"
   width="1122.52"
   height="793.70667"
   viewBox="0 0 1122.52 793.70667"
   sodipodi:docname="LOGO-tagline-burgundy.eps"
   inkscape:version="1.1.1 (eb90963e84, 2021-10-02)"
   xmlns:inkscape="http://www.inkscape.org/namespaces/inkscape"
   xmlns:sodipodi="http://sodipodi.sourceforge.net/DTD/sodipodi-0.dtd"
   xmlns="http://www.w3.org/2000/svg"
   xmlns:svg="http://www.w3.org/2000/svg"><defs
     id="defs6" /><sodipodi:namedview
     id="namedview4"
     pagecolor="#ffffff"
     bordercolor="#666666"
     borderopacity="1.0"
     inkscape:pageshadow="2"
     inkscape:pageopacity="0.0"
     inkscape:pagecheckerboard="0"
     showgrid="false"
     inkscape:zoom="1.0381669"
     inkscape:cx="561.56673"
     inkscape:cy="396.85333"
     inkscape:window-width="1920"
     inkscape:window-height="1018"
     inkscape:window-x="0"
     inkscape:window-y="34"
     inkscape:window-maximized="1"
     inkscape:current-layer="g10" /><g
     id="g8"
     inkscape:groupmode="layer"
     inkscape:label="ink_ext_XXXXXX"
     transform="matrix(1.3333333,0,0,-1.3333333,0,793.70667)"><g
       id="g10"
       transform="scale(0.1)"><path
         d="m 1679.36,1741.82 h -81.38 v 111.19 h 51.57 v 42.11 h -51.57 v 81.38 h 77.12 v 41.16 h -116.86 v -317 h 121.12 z m 278.07,89.19 c -11.04,21.29 -27.91,45.18 -50.62,71.68 -6.95,7.88 -12.31,15.77 -16.09,23.65 -3.79,7.88 -5.52,15.45 -5.2,22.71 0,21.45 7.25,32.33 21.76,32.65 14.82,0.31 22.71,-10.73 23.66,-33.12 h 41.16 c -0.32,22.39 -7.1,40.37 -20.35,53.94 -13.24,13.56 -28.55,20.34 -45.89,20.34 -20.19,0 -35.88,-7.57 -47.08,-22.71 -11.2,-15.14 -16.79,-32.33 -16.79,-51.57 0,-9.78 2.13,-20.58 6.38,-32.41 4.26,-11.83 10.81,-23.26 19.64,-34.3 11.98,-14.83 25.62,-33.59 40.92,-56.3 15.3,-22.71 22.63,-41.01 22.01,-54.88 -0.32,-21.77 -8.84,-33.29 -25.55,-34.54 -18.62,0.94 -28.24,15.45 -28.86,43.52 h -42.11 c 0.94,-24.92 7.33,-45.26 19.16,-61.03 11.83,-15.77 29.1,-23.66 51.81,-23.66 23.96,0 41.4,7.41 52.28,22.24 10.88,14.82 16.32,32.65 16.32,53.47 0,18.92 -5.52,39.03 -16.56,60.32 z m 277.96,186.65 h -121.12 v -41.16 h 39.27 v -275.84 h 40.21 v 275.84 h 41.64 z m 125.38,-282.46 c -4.58,4.41 -10.17,6.62 -16.8,6.62 -6.31,0 -11.75,-2.29 -16.32,-6.86 -4.58,-4.57 -6.86,-10.01 -6.86,-16.32 0,-6.31 2.36,-11.83 7.1,-16.56 4.73,-4.73 10.09,-7.1 16.08,-7.1 6.63,0 12.22,2.37 16.8,7.1 4.57,4.73 6.86,10.25 6.86,16.56 0,6.62 -2.29,12.14 -6.86,16.56 z m 386.64,282.46 h -121.12 v -41.16 h 39.27 v -275.84 h 40.21 v 275.84 h 41.64 z m 311.19,0 -17.03,-146.67 -25.55,146.67 h -34.54 l -25.55,-146.67 -16.56,146.67 h -41.16 l 36.9,-317 h 34.54 l 28.86,177.9 29.81,-177.9 h 34.54 l 36.43,317 z m 312.61,-275.84 h -81.37 v 111.19 h 51.57 v 42.11 h -51.57 v 81.38 h 77.11 v 41.16 h -116.86 v -317 h 121.12 z m 305.05,275.84 h -40.22 v -172.69 l -56.78,172.69 h -39.74 v -317 h 39.74 v 187.83 l 60.09,-187.83 h 36.91 z m 289.43,0 h -121.12 v -41.16 h 39.26 v -275.84 h 40.22 v 275.84 h 41.64 z m 278.54,0 -41.16,-111.19 -42.11,111.19 h -43.53 l 64.35,-173.64 v -143.36 h 41.16 v 143.36 l 64.82,173.64 z m 460.57,-186.65 c -11.04,21.29 -27.91,45.18 -50.62,71.68 -6.95,7.88 -12.31,15.77 -16.09,23.65 -3.79,7.88 -5.52,15.45 -5.21,22.71 0,21.45 7.26,32.33 21.77,32.65 14.82,0.31 22.71,-10.73 23.65,-33.12 h 41.17 c -0.32,22.39 -7.1,40.37 -20.35,53.94 -13.25,13.56 -28.55,20.34 -45.89,20.34 -20.19,0 -35.89,-7.57 -47.08,-22.71 -11.2,-15.14 -16.79,-32.33 -16.79,-51.57 0,-9.78 2.13,-20.58 6.38,-32.41 4.26,-11.83 10.8,-23.26 19.64,-34.3 11.98,-14.83 25.62,-33.59 40.92,-56.3 15.3,-22.71 22.63,-41.01 22,-54.88 -0.31,-21.77 -8.83,-33.29 -25.54,-34.54 -18.62,0.94 -28.24,15.45 -28.87,43.52 h -42.1 c 0.94,-24.92 7.33,-45.26 19.16,-61.03 11.83,-15.77 29.1,-23.66 51.81,-23.66 23.96,0 41.39,7.41 52.28,22.24 10.88,14.82 16.32,32.65 16.32,53.47 0,18.92 -5.52,39.03 -16.56,60.32 z m 293.21,-89.19 h -81.37 v 111.19 h 51.57 v 42.11 h -51.57 v 81.38 h 77.12 v 41.16 h -116.87 v -317 h 121.12 z m 228.17,275.84 -32.18,-180.26 -33.59,180.26 h -41.16 l 56.77,-317 h 34.54 l 56.78,317 z m 298.77,-275.84 h -81.38 v 111.19 h 51.57 v 42.11 h -51.57 v 81.38 h 77.12 v 41.16 h -116.86 v -317 h 121.12 z m 290.26,275.84 h -40.22 v -172.69 l -56.77,172.69 h -39.74 v -317 h 39.74 v 187.83 l 60.09,-187.83 h 36.9 z m 259.86,0 h -121.12 v -41.16 h 39.27 v -275.84 h 40.22 v 275.84 h 41.63 z m 264.24,-275.84 h -81.38 v 111.19 h 51.57 v 42.11 h -51.57 v 81.38 h 77.12 v 41.16 h -116.86 v -317 h 121.12 z m 263.76,0 h -81.38 v 111.19 h 51.58 v 42.11 h -51.58 v 81.38 h 77.12 v 41.16 h -116.86 v -317 h 121.12 z m 275.48,275.84 h -40.22 v -172.69 l -56.77,172.69 h -39.75 v -317 h 39.75 v 187.83 l 60.08,-187.83 h 36.91 v 317"
         style="fill:#531c16;fill-opacity:1;fill-rule:nonzero;stroke:none"
         id="path12" /><path
         d="m 1679.36,1741.82 h -81.38 v 111.19 h 51.57 v 42.11 h -51.57 v 81.38 h 77.12 v 41.16 h -116.86 v -317 h 121.12 z m 278.07,89.19 c -11.04,21.29 -27.91,45.18 -50.62,71.68 -6.95,7.88 -12.31,15.77 -16.09,23.65 -3.79,7.88 -5.52,15.45 -5.2,22.71 0,21.45 7.25,32.33 21.76,32.65 14.82,0.31 22.71,-10.73 23.66,-33.12 h 41.16 c -0.32,22.39 -7.1,40.37 -20.35,53.94 -13.24,13.56 -28.55,20.34 -45.89,20.34 -20.19,0 -35.88,-7.57 -47.08,-22.71 -11.2,-15.14 -16.79,-32.33 -16.79,-51.57 0,-9.78 2.13,-20.58 6.38,-32.41 4.26,-11.83 10.81,-23.26 19.64,-34.3 11.98,-14.83 25.62,-33.59 40.92,-56.3 15.3,-22.71 22.63,-41.01 22.01,-54.88 -0.32,-21.77 -8.84,-33.29 -25.55,-34.54 -18.62,0.94 -28.24,15.45 -28.86,43.52 h -42.11 c 0.94,-24.92 7.33,-45.26 19.16,-61.03 11.83,-15.77 29.1,-23.66 51.81,-23.66 23.96,0 41.4,7.41 52.28,22.24 10.88,14.82 16.32,32.65 16.32,53.47 0,18.92 -5.52,39.03 -16.56,60.32 z m 277.96,186.65 h -121.12 v -41.16 h 39.27 v -275.84 h 40.21 v 275.84 h 41.64 z m 125.38,-282.46 c -4.58,4.41 -10.17,6.62 -16.8,6.62 -6.31,0 -11.75,-2.29 -16.32,-6.86 -4.58,-4.57 -6.86,-10.01 -6.86,-16.32 0,-6.31 2.36,-11.83 7.1,-16.56 4.73,-4.73 10.09,-7.1 16.08,-7.1 6.63,0 12.22,2.37 16.8,7.1 4.57,4.73 6.86,10.25 6.86,16.56 0,6.62 -2.29,12.14 -6.86,16.56 z m 386.64,282.46 h -121.12 v -41.16 h 39.27 v -275.84 h 40.21 v 275.84 h 41.64 z m 311.19,0 -17.03,-146.67 -25.55,146.67 h -34.54 l -25.55,-146.67 -16.56,146.67 h -41.16 l 36.9,-317 h 34.54 l 28.86,177.9 29.81,-177.9 h 34.54 l 36.43,317 z m 312.61,-275.84 h -81.37 v 111.19 h 51.57 v 42.11 h -51.57 v 81.38 h 77.11 v 41.16 h -116.86 v -317 h 121.12 z m 305.05,275.84 h -40.22 v -172.69 l -56.78,172.69 h -39.74 v -317 h 39.74 v 187.83 l 60.09,-187.83 h 36.91 z m 289.43,0 h -121.12 v -41.16 h 39.26 v -275.84 h 40.22 v 275.84 h 41.64 z m 278.54,0 -41.16,-111.19 -42.11,111.19 h -43.53 l 64.35,-173.64 v -143.36 h 41.16 v 143.36 l 64.82,173.64 z m 460.57,-186.65 c -11.04,21.29 -27.91,45.18 -50.62,71.68 -6.95,7.88 -12.31,15.77 -16.09,23.65 -3.79,7.88 -5.52,15.45 -5.21,22.71 0,21.45 7.26,32.33 21.77,32.65 14.82,0.31 22.71,-10.73 23.65,-33.12 h 41.17 c -0.32,22.39 -7.1,40.37 -20.35,53.94 -13.25,13.56 -28.55,20.34 -45.89,20.34 -20.19,0 -35.89,-7.57 -47.08,-22.71 -11.2,-15.14 -16.79,-32.33 -16.79,-51.57 0,-9.78 2.13,-20.58 6.38,-32.41 4.26,-11.83 10.8,-23.26 19.64,-34.3 11.98,-14.83 25.62,-33.59 40.92,-56.3 15.3,-22.71 22.63,-41.01 22,-54.88 -0.31,-21.77 -8.83,-33.29 -25.54,-34.54 -18.62,0.94 -28.24,15.45 -28.87,43.52 h -42.1 c 0.94,-24.92 7.33,-45.26 19.16,-61.03 11.83,-15.77 29.1,-23.66 51.81,-23.66 23.96,0 41.39,7.41 52.28,22.24 10.88,14.82 16.32,32.65 16.32,53.47 0,18.92 -5.52,39.03 -16.56,60.32 z m 293.21,-89.19 h -81.37 v 111.19 h 51.57 v 42.11 h -51.57 v 81.38 h 77.12 v 41.16 h -116.87 v -317 h 121.12 z m 228.17,275.84 -32.18,-180.26 -33.59,180.26 h -41.16 l 56.77,-317 h 34.54 l 56.78,317 z m 298.77,-275.84 h -81.38 v 111.19 h 51.57 v 42.11 h -51.57 v 81.38 h 77.12 v 41.16 h -116.86 v -317 h 121.12 z m 290.26,275.84 h -40.22 v -172.69 l -56.77,172.69 h -39.74 v -317 h 39.74 v 187.83 l 60.09,-187.83 h 36.9 z m 259.86,0 h -121.12 v -41.16 h 39.27 v -275.84 h 40.22 v 275.84 h 41.63 z m 264.24,-275.84 h -81.38 v 111.19 h 51.57 v 42.11 h -51.57 v 81.38 h 77.12 v 41.16 h -116.86 v -317 h 121.12 z m 263.76,0 h -81.38 v 111.19 h 51.58 v 42.11 h -51.58 v 81.38 h 77.12 v 41.16 h -116.86 v -317 h 121.12 z m 275.48,275.84 h -40.22 v -172.69 l -56.77,172.69 h -39.75 v -317 h 39.75 v 187.83 l 60.08,-187.83 h 36.91 z"
         style="fill:none;stroke:#531c16;stroke-width:2.15931;stroke-linecap:butt;stroke-linejoin:miter;stroke-miterlimit:4;stroke-dasharray:none;stroke-opacity:1"
         id="path14" /><path
         d="m 2767,3180.62 c -221.3,0 -324.42,-250.79 -324.42,-420.27 0,-201.53 124.03,-419.04 324.42,-419.04 123.89,0 200.81,76.17 243.54,140.06 51.39,76.89 82.07,181.16 82.07,278.98 0,109.13 -31.84,212.12 -89.63,289.97 -61.53,84.02 -145.34,130.3 -235.98,130.3 z m 208.3,-420.27 c 0,-83.19 -23.75,-161.1 -66.9,-219.39 -39.24,-53.12 -89.45,-82.36 -141.4,-82.36 -51.17,0 -100.96,29.24 -140.24,82.36 -43.14,58.33 -66.89,136.25 -66.89,219.39 0,83.93 23.75,162.27 66.89,220.58 38.73,52.37 88.54,81.21 140.24,81.21 142.1,0 208.3,-180.07 208.3,-301.79"
         style="fill:#531c16;fill-opacity:1;fill-rule:nonzero;stroke:none"
         id="path16" /><path
         d="m 6672.56,2954.25 c -163.19,0 -236.6,-178.44 -236.6,-305.13 0,-78.89 22.95,-153.85 64.61,-211.04 l 0.07,-0.06 c 45.99,-60.65 107.06,-94.05 171.92,-94.05 163.21,0 236.62,178.44 236.62,305.15 0,126.69 -73.41,305.13 -236.62,305.13 z m 148.96,-305.13 c 0,-91.18 -51.77,-217.49 -148.96,-217.49 -97.19,0 -148.94,126.31 -148.94,217.49 0,87.7 47.34,217.47 148.94,217.47 101.62,0 148.96,-129.77 148.96,-217.47"
         style="fill:#531c16;fill-opacity:1;fill-rule:nonzero;stroke:none"
         id="path18" /><path
         d="m 4461.25,3177.09 h -227.81 c -7.91,0 -14.85,-6.38 -14.85,-13.67 0,-4.46 1.48,-7.92 4.77,-11.22 10.87,-10.87 20.92,-22.97 20.92,-37.84 v -700.97 c 0,-14.87 -10.05,-26.99 -20.91,-37.85 -3.3,-3.29 -4.78,-6.75 -4.78,-11.22 0,-7.28 6.94,-13.67 14.85,-13.67 h 227.81 c 84.98,0 163.42,45.47 220.86,128.04 51.71,75.24 80.2,176.52 80.2,285.16 0,95.59 -26.89,197.27 -71.89,271.97 -38.82,64.45 -110.09,141.27 -229.17,141.27 z m 182.59,-413.24 c 0,-165.93 -80.19,-295.91 -182.59,-295.91 h -92.3 c -3.33,0 -7.36,3.82 -7.36,8.54 v 574.79 c 0,4.73 4.03,8.54 7.36,8.54 h 92.3 c 102.4,0 182.59,-130 182.59,-295.96"
         style="fill:#531c16;fill-opacity:1;fill-rule:nonzero;stroke:none"
         id="path20" /><path
         d="m 2122.64,2736.65 h -129.67 c -6.63,0 -13.67,-4.66 -13.67,-13.3 v -1.99 c 0,-2.97 0.61,-6.79 5.17,-9.97 9.48,-7.36 14.7,-17.78 14.7,-29.31 v -207.5 c 0,-5.69 -3.91,-13.66 -8.16,-14.38 -22.58,-4.28 -71.22,-6.2 -109.41,-6.2 -49.77,0 -128.08,33.23 -167.79,86.96 -43.14,58.31 -66.91,136.23 -66.91,219.39 0,82.62 28.9,154.84 73.03,214.46 38.27,51.76 109.64,82.74 161.67,82.74 38.28,0 71.18,-7.16 110.12,-31.17 l 16.1,-9.2 c 4.98,-3.32 10.93,-9.04 10.93,-17.44 0,-7.01 6.64,-13.65 13.66,-13.65 3.82,0 8.85,1.84 10.44,5.21 l 77.89,102.37 c 2.14,2.12 3.48,5.6 3.48,9.07 0.01,3.38 -1.22,6.48 -3.47,8.72 -4.42,4.42 -9.3,6.03 -14.01,4.46 -5.05,-2.03 -11.44,-2.03 -17.07,-2.03 -9.07,0 -48.91,16.55 -57.02,20.53 -43.28,21.24 -110.79,33.94 -151.05,33.94 -97.59,0 -188.81,-48 -256.87,-135.15 -60.53,-77.51 -96.66,-179.5 -96.66,-272.86 0,-197.24 132.16,-407.93 353.31,-419.04 8.68,-0.42 17.76,-0.65 27.14,-0.65 67.47,0 150.18,12.02 205.73,46.41 l 2.04,1.26 0.01,2.39 c 0,0 0.17,42.53 0.17,53.05 v 240.65 c 0,8.92 2.41,20.75 13.94,26.51 4.05,2.02 5.9,7.06 5.9,10.9 0,7.88 -6.39,14.82 -13.67,14.82"
         style="fill:#531c16;fill-opacity:1;fill-rule:nonzero;stroke:none"
         id="path22" /><path
         d="m 2179.08,4233.96 c 3.29,3.31 4.76,6.77 4.76,11.23 0,7.03 -6.65,13.67 -13.67,13.67 h -117.18 c -7.06,0 -13.21,-2.91 -16.09,-7.32 l -189.81,-214.95 -189.44,215.15 c -4.53,4.53 -10.32,7.12 -15.91,7.12 h -117.18 c -7.9,0 -14.84,-6.39 -14.84,-13.67 0,-5.1 2.04,-8.74 6.44,-11.69 12.06,-8.74 19.25,-22.72 19.25,-37.39 v -700.98 c 0,-14.67 -7.19,-28.65 -19.11,-37.29 -4.54,-3.06 -6.58,-6.69 -6.58,-11.77 0,-7.28 6.94,-13.67 14.84,-13.67 h 142.08 c 7.9,0 14.84,6.39 14.84,13.67 0,5.26 -3.26,8.54 -5.92,11.22 l -0.96,0.97 -1.34,0.24 c -10.29,1.88 -17.48,11.18 -17.48,22.62 v 596.66 l 185.02,-211.85 c 2.42,-2.42 5.12,-2.42 6.58,-2.42 1.44,0 4.12,0 6.73,2.65 l 184.85,211.65 v -582.68 c 0,-14.84 -10.06,-26.95 -20.92,-37.82 -3.31,-3.3 -4.79,-6.77 -4.79,-11.24 0,-7.28 6.93,-13.67 14.83,-13.67 h 142.09 c 7.02,0 13.67,6.65 13.67,13.67 0,4.45 -1.46,7.91 -4.76,11.24 -13.87,13.85 -19.77,25.17 -19.77,37.82 v 700.98 c 0,12.67 5.9,23.98 19.77,37.85"
         style="fill:#531c16;fill-opacity:1;fill-rule:nonzero;stroke:none"
         id="path24" /><path
         d="m 4364.12,3432.4 c 7.89,0 14.83,6.39 14.83,13.67 0,5.26 -3.27,8.55 -5.95,11.24 -13.85,13.84 -19.76,25.16 -19.76,37.82 v 700.98 c 0,12.68 5.91,23.99 19.78,37.86 2.64,2.64 5.93,5.92 5.93,11.22 0,7.28 -6.94,13.67 -14.83,13.67 h -145.16 c -7.9,0 -14.83,-6.39 -14.83,-13.67 0,-4.46 1.47,-7.92 4.76,-11.23 l 0.66,-0.55 c 12.7,-8.46 20.27,-22.41 20.27,-37.3 v -700.98 c 0,-14.84 -10.06,-26.95 -20.94,-37.84 -3.29,-3.31 -4.75,-6.77 -4.75,-11.22 0,-7.28 6.93,-13.67 14.83,-13.67 h 145.16"
         style="fill:#531c16;fill-opacity:1;fill-rule:nonzero;stroke:none"
         id="path26" /><path
         d="m 5209,3594.99 c -3.99,0 -8.97,-3.24 -10.86,-7.07 -14.11,-28.19 -44.88,-44.35 -84.39,-44.35 h -175.26 c -3.33,0 -7.36,3.8 -7.36,8.53 v 644.01 c 0,12.68 5.91,23.99 19.78,37.86 2.64,2.64 5.92,5.92 5.92,11.22 0,7.28 -6.93,13.67 -14.84,13.67 h -139.02 c -7.89,0 -14.83,-6.39 -14.83,-13.67 0,-4.48 1.48,-7.95 4.77,-11.25 10.86,-10.85 20.91,-22.96 20.91,-37.83 v -700.98 c 0,-14.66 -7.19,-28.63 -19.1,-37.29 -4.56,-3.06 -6.58,-6.69 -6.58,-11.77 0,-7.28 6.94,-13.67 14.83,-13.67 h 404.15 c 7.67,0 15.98,6.12 15.98,15.98 l 0.72,131.76 c 0,8.18 -6.64,14.85 -14.82,14.85"
         style="fill:#531c16;fill-opacity:1;fill-rule:nonzero;stroke:none"
         id="path28" /><path
         d="m 5974.64,3560.45 c 51.71,75.25 80.2,176.53 80.2,285.18 0,95.59 -26.89,197.25 -71.89,271.96 -38.84,64.44 -110.12,141.27 -229.19,141.27 h -227.81 c -7.9,0 -14.84,-6.39 -14.84,-13.67 0,-4.45 1.47,-7.91 4.76,-11.25 10.89,-10.87 20.94,-22.98 20.94,-37.83 v -700.98 c 0,-14.84 -10.05,-26.95 -20.96,-37.84 -3.27,-3.33 -4.74,-6.79 -4.74,-11.22 0,-7.28 6.94,-13.67 14.84,-13.67 h 227.81 c 84.98,0 163.42,45.47 220.88,128.05 z m -320.52,-2.22 v 574.8 c 0,4.73 4.03,8.53 7.36,8.53 h 92.28 c 102.4,0 182.61,-129.99 182.61,-295.93 0,-165.95 -80.21,-295.93 -182.61,-295.93 h -92.28 c -3.33,0 -7.36,3.81 -7.36,8.53"
         style="fill:#531c16;fill-opacity:1;fill-rule:nonzero;stroke:none"
         id="path30" /><path
         d="m 3347.05,4102.02 c 5.3,0 8.57,3.28 11.24,5.95 23.24,23.25 42.25,39.7 75.32,39.7 h 86.45 c 4.62,0 8.52,-3.9 8.52,-8.52 v -644.02 c 0,-14.66 -7.19,-28.63 -19.1,-37.29 -4.57,-3.07 -6.61,-6.7 -6.61,-11.77 0,-7.28 6.93,-13.67 14.84,-13.67 h 142.1 c 7.9,0 14.84,6.39 14.84,13.67 0,5.25 -3.27,8.53 -5.96,11.24 -13.85,13.84 -19.76,25.16 -19.76,37.82 v 644.02 c 0,4.24 2.53,8.52 7.37,8.52 h 75.93 c 36.65,0 61.72,-12.97 74.5,-38.57 1.91,-3.83 6.89,-7.08 10.88,-7.08 8.17,0 14.83,6.66 14.83,14.85 l -0.16,125.98 c 0,9.88 -8.31,16.01 -16.01,16.01 h -466.71 c -7.69,0 -16,-6.13 -16,-15.99 l -0.18,-126.01 c 0,-7.9 6.39,-14.84 13.67,-14.84"
         style="fill:#531c16;fill-opacity:1;fill-rule:nonzero;stroke:none"
         id="path32" /><path
         d="m 2520.73,3432.4 h 135.24 c 7.9,0 14.83,6.39 14.83,13.67 0,5.26 -3.25,8.54 -5.91,11.22 l -1.27,1.29 h -1.45 c -9.01,7.67 -12.99,19.62 -10.2,30.8 l 26.8,103.61 c 1.6,4.79 5.65,9.91 12.25,9.91 h 209.85 c 6.61,0 10.66,-5.12 12.17,-9.63 l 26.87,-103.85 c 2.65,-10.63 -1.32,-20.53 -12.95,-32.17 -2.62,-2.64 -5.87,-5.92 -5.87,-11.18 0,-7.28 6.93,-13.67 14.83,-13.67 h 135.24 c 7.9,0 14.84,6.39 14.84,13.67 0,5.09 -2.05,8.73 -6.61,11.78 -12.18,8.11 -21.5,21.77 -26.25,38.39 l -202.09,759.4 -4.18,-1.1 v 0 h -101.92 v 0 l -4.17,1.1 -202,-759.32 c -4.38,-15.26 -15.36,-26.25 -28.13,-39.03 -3.29,-3.31 -4.76,-6.77 -4.76,-11.22 0,-7.28 6.94,-13.67 14.84,-13.67 z m 191.84,282.96 c 0,0 -0.01,0.12 0.07,0.38 l 82.73,324.91 83.31,-325.05 -166.11,-0.24"
         style="fill:#531c16;fill-opacity:1;fill-rule:nonzero;stroke:none"
         id="path34" /><path
         d="m 3857.18,2418 -202.09,759.4 -4.19,-1.11 h -101.89 l -4.19,1.11 -202,-759.33 c -4.35,-15.25 -15.35,-26.25 -28.09,-39.01 -3.31,-3.29 -4.8,-6.77 -4.8,-11.24 0,-7.28 6.94,-13.67 14.84,-13.67 h 135.24 c 7.9,0 14.84,6.39 14.84,13.67 0,5.29 -3.3,8.58 -5.94,11.24 l -1.26,1.26 h -1.42 c -9.03,7.66 -13.01,19.61 -10.2,30.83 l 26.78,103.58 c 1.58,4.81 5.64,9.91 12.26,9.91 h 209.85 c 6.6,0 10.66,-5.1 12.16,-9.61 l 26.88,-103.86 c 2.65,-10.62 -1.32,-20.54 -12.86,-32.11 -2.52,-2.49 -5.98,-5.91 -5.98,-11.24 0,-7.28 6.94,-13.67 14.85,-13.67 h 135.23 c 7.91,0 14.85,6.39 14.85,13.67 0,5.1 -2.04,8.73 -6.61,11.77 -12.16,8.11 -21.49,21.78 -26.26,38.41 z m -340.58,219.12 c 0,0 0,0.11 0.09,0.36 l 82.71,324.92 83.32,-325.05 -166.12,-0.23"
         style="fill:#531c16;fill-opacity:1;fill-rule:nonzero;stroke:none"
         id="path36" /><path
         d="m 6318.63,3432.4 h 135.25 c 7.91,0 14.85,6.39 14.85,13.67 0,5.21 -3.23,8.47 -5.93,11.22 l -1.26,1.29 h -1.46 c -9,7.66 -12.99,19.62 -10.21,30.8 l 26.78,103.6 c 1.61,4.8 5.68,9.92 12.28,9.92 h 209.83 c 6.6,0 10.67,-5.13 12.21,-9.63 l 26.85,-103.84 c 2.65,-10.67 -1.33,-20.56 -12.93,-32.17 -2.64,-2.64 -5.9,-5.93 -5.9,-11.19 0,-7.28 6.93,-13.67 14.82,-13.67 h 135.25 c 7.89,0 14.83,6.39 14.83,13.67 0,5.08 -2.03,8.72 -6.58,11.78 -12.19,8.11 -21.51,21.77 -26.28,38.39 l -202.1,759.4 -4.16,-1.1 v 0 h -101.9 v -0.01 l -4.18,1.11 -202.01,-759.32 c -4.37,-15.26 -15.35,-26.25 -28.11,-39.02 -3.31,-3.32 -4.79,-6.78 -4.79,-11.23 0,-7.28 6.94,-13.67 14.85,-13.67 z m 191.83,282.95 c 0,0 0,0.13 0.08,0.38 l 82.73,324.88 83.31,-325.01 -166.12,-0.25"
         style="fill:#531c16;fill-opacity:1;fill-rule:nonzero;stroke:none"
         id="path38" /><path
         d="m 6237.1,2504.03 c -2.1,1.58 -4.19,3.18 -6.95,2.79 -4.6,-0.65 -6.85,-4.73 -6.2,-9.33 0.91,-6.48 -1.64,-12.85 -5.49,-18.36 l -1.87,-2.31 c -29.07,-32.13 -64.87,-41.58 -113.45,-42.06 -44.23,0 -89.92,17.53 -116.15,52.62 -26.26,35.09 -44.59,100.15 -44.59,163.83 0,53.66 17.9,115.46 43.27,154.09 25.33,38.63 70.87,58.52 115.7,59.73 44.87,-1.39 81.86,-14.97 114.55,-42.37 3.62,-4.21 6.76,-9.24 6.22,-14.6 -0.5,-4.6 3.82,-7.86 7.51,-8.25 1.86,-0.19 4.71,0.44 5.83,2.19 l 70.33,74.62 c 3.04,2.46 1.68,7.26 -0.78,10.32 -1.66,2.03 -3.5,2.23 -6.26,2.51 -4.71,-0.44 -10.34,-0.78 -14.96,-0.28 -8.3,0.86 -15.49,1.92 -22.38,7.29 l -9.45,5.62 c -44.33,34.27 -88.92,52.51 -150.61,52.51 -77.85,0 -139.17,-27.42 -183.98,-82.25 -44.83,-54.84 -67.22,-129.12 -67.22,-222.9 0,-93.18 22.55,-167.76 67.65,-223.77 45.11,-56.01 106.29,-84.02 183.55,-84.02 65.23,0 113.83,21.01 159.89,59.9 l 15.03,10.52 c 5.14,3.52 11.32,6.26 17.77,7.16 2.74,0.39 6.44,0.91 9.31,0.37 0.93,0.15 1.86,0.26 1.86,0.26 2.69,0.39 5.29,1.69 5.93,3.65 1.45,3.02 0.93,6.69 -2.2,9.07 l -71.86,71.45"
         style="fill:#531c16;fill-opacity:1;fill-rule:nonzero;stroke:none"
         id="path40" /><path
         d="m 5525.46,2623.45 0.17,-0.03 2.05,15.11 c 0.63,5.47 4.75,11.88 8.21,16.37 1.72,2.25 3.45,4.49 5.91,6.18 0.58,0.75 1.17,1.49 1.17,1.49 1.72,2.26 2.11,4.34 1.94,5.66 -0.52,3.97 -4.66,4.77 -6.76,5.18 l -93.02,-0.11 c -2.07,0.39 -4.53,-1.27 -5.7,-2.79 -2.29,-3 -1.77,-6.97 1.23,-9.26 7.21,-5.54 9.93,-16.06 9.36,-24.75 -1.23,-23.2 -5.68,-49.04 -13.4,-77.56 l -127.1,180.82 c -22.69,31.01 -34.03,58.48 -34.03,82.36 0,14.9 4.62,27.29 13.89,37.14 9.24,9.85 20.73,15.07 34.46,15.68 26.84,-1.21 47.14,-17.62 60.87,-49.26 l 72.51,36.71 c -29.86,60.27 -73.72,90.99 -131.59,92.2 -38.2,0 -69.25,-12.67 -93.11,-38.04 -23.86,-25.38 -35.8,-57.44 -35.8,-96.22 0,-37.6 12.83,-75.51 38.5,-113.69 -63.87,-47.74 -96.67,-113.69 -98.46,-197.84 0,-51.32 14.9,-93.23 44.76,-125.76 29.82,-32.54 68.32,-48.77 115.46,-48.77 53.12,0 100.26,25.04 141.43,75.18 l 42.07,-62.66 h 110.1 l -102.02,140.55 c 19.26,36.34 31.34,81.98 36.9,136.11 z m -224.9,-200.57 c -21.48,0 -39.99,8.64 -55.49,25.96 -15.53,17.3 -23.28,37.9 -23.28,61.76 0,39.99 20.58,79.67 61.76,119.06 l 105.63,-148.6 c -26.86,-38.78 -56.4,-58.18 -88.62,-58.18"
         style="fill:#531c16;fill-opacity:1;fill-rule:nonzero;stroke:none"
         id="path42" /></g></g></svg>
