<?xml version="1.0" encoding="UTF-8"?>
<!-- Created with Inkscape (http://www.inkscape.org/) -->
<svg width="113.39" height="113.39" version="1.1" viewBox="0 0 113.39 113.39" xml:space="preserve" xmlns="http://www.w3.org/2000/svg"><g transform="matrix(1.3333 0 0 -1.3333 0 113.39)"><g transform="scale(.1)" fill="none" stroke="#ffffff" stroke-width="44.878"><path d="m264.59 107.74c33.434 0 60.535 27.106 60.535 60.535 0 33.434-27.101 60.54-60.535 60.54-33.438 0-60.539-27.106-60.539-60.54 0-33.429 27.101-60.535 60.539-60.535z"/><path d="m670.05 107.74c33.433 0 60.539 27.106 60.539 60.535 0 33.434-27.106 60.54-60.539 60.54-33.434 0-60.539-27.106-60.539-60.54 0-33.429 27.105-60.535 60.539-60.535z"/><path d="m41.246 679.46h94.348l110.12-346.48h424.48l115.32 346.48h-545.09"/></g></g></svg>
